# xmcd
# Copyright (C) 1995-1998 Ti Kan
#
# Track frame offsets:
#       150
#       23141
#       46341
#       74888
#       95340
#       115647
#       131225
#
# Disc length: 2063 seconds
#
# Revision: 0
# Processed by: cddbd v1.5.2PL0 Copyright (c) Steve Scherf et al.
# Submitted via: CD-Import v1.0
#
DISCID=60080d07
DTITLE=Mgy - Trail Of Devastation
DYEAR=2008
DGENRE=
TTITLE0=Long Drop
TTITLE1=Black Coney
TTITLE2=Suicide Of Town
TTITLE3=Roses
TTITLE4=Mama Don't Creep
TTITLE5=Insomnia
TTITLE6=Long Drop
EXTD=
EXTT0=
EXTT1=
EXTT2=
EXTT3=
EXTT4=
EXTT5=
EXTT6=
PLAYORDER=
